<svg id="圖層_1" data-name="圖層 1" xmlns="http://www.w3.org/2000/svg" viewBox="0 0 546.25 333.25"><defs><style>.cls-1{fill:#c3cbdf;}</style></defs><path class="cls-1" d="M545.61,513H452.75V179.75H999V513H903.41c.68-6.39-.57-12.62-5.45-16.88-6.26-5.44-12.89-11-20.34-14.52-14-6.69-28.84-11.77-43.09-18-4-1.76-10.36-2-10.13-8.73L845,427.67,859.66,424c-4.79-10.89.13-20.07,5.13-29.38,6.2-11.55,12.12-23.25,18-35,7.62-15.26,14.67-30.8,22.68-45.86,9.43-17.73,19.81-35,29.36-52.65,2.43-4.5,3.26-9.8,4.65-14.19-13-13-20.91-11.65-27.48,3.53-1.72,4-3.76,7.8-5.69,11.67-10.17,20.39-19.81,41.05-30.68,61.09-10.72,19.75-22.76,38.83-34.08,58.27-4.49,7.7-9.79,14.27-18.83,17.44-2.59.91-4.57,3.46-7.14,5.49l9.1,10.65-19.58,34.37c-6-2.38-12.5-2-18.1-7.22a40.18,40.18,0,0,1-12.86-23.61c-2.58-14.79-4-29.19,3.48-43.54,4.2-8,5.76-17.32,8.52-26,1.73-2.91,3.84-5.67,5.13-8.75,4.9-11.62.66-22.62-2.84-33.64.33-6.57.57-13.15,1-19.71.56-8.25,2.51-16.61,1.66-24.71-1.47-14-6.42-26.67-19.81-34.77-5.31-3.22-9.68-7.86-14.86-11.3a46,46,0,0,0-22.64-7.63c-16.19-1.24-30.07,3.6-43.85,10.92-27.74,14.74-34.67,37.7-31.87,64.05.6,5.61,2.26,11.2,2.1,16.77-.31,10.59-1.78,21.15-2.35,31.74a29.7,29.7,0,0,0,1.32,11.59c6.35,17.24,13.14,34.33,19.81,51.54-.7,4.05-2.2,8.34-2,12.58.41,10.08-2.73,19.11-8.13,27.3a25.93,25.93,0,0,1-10.46,9.13c-24.15,10.64-48.24,21.57-73,30.68-12.77,4.7-22.63,12.61-32.55,20.67C547.76,499.58,543.74,505.57,545.61,513Z" transform="translate(-452.75 -179.75)"/></svg>