<svg width="58" height="54" viewBox="0 0 58 54" fill="none" xmlns="http://www.w3.org/2000/svg">
<path d="M56.7996 26.5576L30.4471 0.59138C30.2574 0.403914 30.032 0.255186 29.7839 0.15371C29.5358 0.0522331 29.2698 0 29.0012 0C28.7326 0 28.4666 0.0522331 28.2185 0.15371C27.9704 0.255186 27.745 0.403914 27.5553 0.59138L1.20279 26.5576C0.43505 27.3146 0 28.3429 0 29.4154C0 31.6423 1.83617 33.4529 4.09459 33.4529H6.87123V51.9813C6.87123 53.0979 7.78612 54 8.91853 54H24.9066V39.8687H32.0721V54H49.0839C50.2163 54 51.1312 53.0979 51.1312 51.9813V33.4529H53.9078C54.9954 33.4529 56.0383 33.0302 56.806 32.2669C58.3991 30.6897 58.3991 28.1347 56.7996 26.5576Z" fill="#1D5E9F"/>
</svg>
